<svg width="25" height="24" viewBox="0 0 25 24" fill="none" xmlns="http://www.w3.org/2000/svg">
  <g clip-path="url(#clip0_913_12549)">
    <path d="M16.214 10.3959V13.5631C16.214 13.7816 16.0588 14.0486 15.8676 14.159L13.0963 15.759C12.9051 15.8694 12.7499 15.7816 12.7499 15.5631V12.3959C12.7499 12.1774 12.9051 11.9104 13.0963 11.8L15.8676 10.2C16.0588 10.0896 16.214 10.1774 16.214 10.3959ZM19.6781 8.3959V11.5631C19.6781 11.7816 19.5229 12.0486 19.3317 12.159L16.5604 13.759C16.3692 13.8694 16.214 13.7816 16.214 13.5631V10.3959C16.214 10.1774 16.3692 9.91038 16.5604 9.8L19.3317 8.2C19.5229 8.08962 19.6781 8.1774 19.6781 8.3959ZM23.1422 6.3959V9.56308C23.1422 9.78157 22.987 10.0486 22.7958 10.159L20.0245 11.759C19.8333 11.8694 19.6781 11.7816 19.6781 11.5631V8.3959C19.6781 8.1774 19.8333 7.91038 20.0245 7.8L22.7958 6.2C22.987 6.08962 23.1422 6.1774 23.1422 6.3959Z" fill="#FFFF00"/>
    <path d="M16.214 10.3959V13.5631M16.214 10.3959C16.214 10.1774 16.0588 10.0896 15.8676 10.2L13.0963 11.8C12.9051 11.9104 12.7499 12.1774 12.7499 12.3959V15.5631C12.7499 15.7816 12.9051 15.8694 13.0963 15.759L15.8676 14.159C16.0588 14.0486 16.214 13.7816 16.214 13.5631M16.214 10.3959C16.214 10.1774 16.3692 9.91038 16.5604 9.8L19.3317 8.2C19.5229 8.08962 19.6781 8.1774 19.6781 8.3959M16.214 13.5631C16.214 13.7816 16.3692 13.8694 16.5604 13.759L19.3317 12.159C19.5229 12.0486 19.6781 11.7816 19.6781 11.5631M19.6781 8.3959V11.5631M19.6781 8.3959C19.6781 8.1774 19.8333 7.91038 20.0245 7.8L22.7958 6.2C22.987 6.08962 23.1422 6.1774 23.1422 6.3959V9.56308C23.1422 9.78157 22.987 10.0486 22.7958 10.159L20.0245 11.759C19.8333 11.8694 19.6781 11.7816 19.6781 11.5631" stroke="#706F6F" stroke-width="0.4"/>
    <path d="M16.214 14.3549V17.5221C16.214 17.7406 16.0588 18.0076 15.8676 18.118L13.0963 19.718C12.9051 19.8283 12.7499 19.7406 12.7499 19.5221V16.3549C12.7499 16.1364 12.9051 15.8694 13.0963 15.759L15.8676 14.159C16.0588 14.0486 16.214 14.1364 16.214 14.3549ZM19.6781 12.3549V15.5221C19.6781 15.7406 19.5229 16.0076 19.3317 16.118L16.5604 17.718C16.3692 17.8283 16.214 17.7406 16.214 17.5221V14.3549C16.214 14.1364 16.3692 13.8694 16.5604 13.759L19.3317 12.159C19.5229 12.0486 19.6781 12.1364 19.6781 12.3549ZM23.1422 10.3549V13.5221C23.1422 13.7406 22.987 14.0076 22.7958 14.118L20.0245 15.718C19.8333 15.8283 19.6781 15.7406 19.6781 15.5221V12.3549C19.6781 12.1364 19.8333 11.8694 20.0245 11.759L22.7958 10.159C22.987 10.0486 23.1422 10.1364 23.1422 10.3549Z" fill="#FFFF00"/>
    <path d="M16.214 14.3549V17.5221M16.214 14.3549C16.214 14.1364 16.0588 14.0486 15.8676 14.159L13.0963 15.759C12.9051 15.8694 12.7499 16.1364 12.7499 16.3549V19.5221C12.7499 19.7406 12.9051 19.8283 13.0963 19.718L15.8676 18.118C16.0588 18.0076 16.214 17.7406 16.214 17.5221M16.214 14.3549C16.214 14.1364 16.3692 13.8694 16.5604 13.759L19.3317 12.159C19.5229 12.0486 19.6781 12.1364 19.6781 12.3549M16.214 17.5221C16.214 17.7406 16.3692 17.8283 16.5604 17.718L19.3317 16.118C19.5229 16.0076 19.6781 15.7406 19.6781 15.5221M19.6781 12.3549V15.5221M19.6781 12.3549C19.6781 12.1364 19.8333 11.8694 20.0245 11.759L22.7958 10.159C22.987 10.0486 23.1422 10.1364 23.1422 10.3549V13.5221C23.1422 13.7406 22.987 14.0076 22.7958 14.118L20.0245 15.718C19.8333 15.8283 19.6781 15.7406 19.6781 15.5221" stroke="#706F6F" stroke-width="0.4"/>
    <path d="M16.214 18.3139V21.481C16.214 21.6995 16.0588 21.9666 15.8676 22.0769L13.0963 23.6769C12.9051 23.7873 12.7499 23.6995 12.7499 23.481V20.3139C12.7499 20.0954 12.9051 19.8283 13.0963 19.718L15.8676 18.118C16.0588 18.0076 16.214 18.0954 16.214 18.3139ZM19.6781 16.3139V19.481C19.6781 19.6995 19.5229 19.9666 19.3317 20.0769L16.5604 21.6769C16.3692 21.7873 16.214 21.6995 16.214 21.481V18.3139C16.214 18.0954 16.3692 17.8283 16.5604 17.718L19.3317 16.118C19.5229 16.0076 19.6781 16.0954 19.6781 16.3139ZM23.1422 14.3139V17.481C23.1422 17.6995 22.987 17.9666 22.7958 18.0769L20.0245 19.6769C19.8333 19.7873 19.6781 19.6995 19.6781 19.481V16.3139C19.6781 16.0954 19.8333 15.8283 20.0245 15.718L22.7958 14.118C22.987 14.0076 23.1422 14.0954 23.1422 14.3139Z" fill="#FFFF00"/>
    <path d="M16.214 18.3139V21.481M16.214 18.3139C16.214 18.0954 16.0588 18.0076 15.8676 18.118L13.0963 19.718C12.9051 19.8283 12.7499 20.0954 12.7499 20.3139V23.481C12.7499 23.6995 12.9051 23.7873 13.0963 23.6769L15.8676 22.0769C16.0588 21.9666 16.214 21.6995 16.214 21.481M16.214 18.3139C16.214 18.0954 16.3692 17.8283 16.5604 17.718L19.3317 16.118C19.5229 16.0076 19.6781 16.0954 19.6781 16.3139M16.214 21.481C16.214 21.6995 16.3692 21.7873 16.5604 21.6769L19.3317 20.0769C19.5229 19.9666 19.6781 19.6995 19.6781 19.481M19.6781 16.3139V19.481M19.6781 16.3139C19.6781 16.0954 19.8333 15.8283 20.0245 15.718L22.7958 14.118C22.987 14.0076 23.1422 14.0954 23.1422 14.3139V17.481C23.1422 17.6995 22.987 17.9666 22.7958 18.0769L20.0245 19.6769C19.8333 19.7873 19.6781 19.6995 19.6781 19.481" stroke="#706F6F" stroke-width="0.4"/>
    <path d="M5.71398 8.3959V11.5631C5.71398 11.7816 5.55875 11.8694 5.36757 11.759L2.59629 10.159C2.4051 10.0486 2.24988 9.78157 2.24988 9.56308V6.3959C2.24988 6.1774 2.4051 6.08962 2.59629 6.2L5.36757 7.8C5.55875 7.91038 5.71398 8.1774 5.71398 8.3959ZM9.17808 10.3959V13.5631C9.17808 13.7816 9.02285 13.8694 8.83167 13.759L6.06039 12.159C5.86921 12.0486 5.71398 11.7816 5.71398 11.5631V8.3959C5.71398 8.1774 5.86921 8.08962 6.06039 8.2L8.83167 9.8C9.02285 9.91038 9.17808 10.1774 9.17808 10.3959ZM12.6422 12.3959V15.5631C12.6422 15.7816 12.487 15.8694 12.2958 15.759L9.52449 14.159C9.33331 14.0486 9.17808 13.7816 9.17808 13.5631V10.3959C9.17808 10.1774 9.33331 10.0896 9.52449 10.2L12.2958 11.8C12.487 11.9104 12.6422 12.1774 12.6422 12.3959Z" fill="#0DFF00"/>
    <path d="M5.71398 8.3959V11.5631M5.71398 8.3959C5.71398 8.1774 5.55875 7.91038 5.36757 7.8L2.59629 6.2C2.4051 6.08962 2.24988 6.1774 2.24988 6.3959V9.56308C2.24988 9.78157 2.4051 10.0486 2.59629 10.159L5.36757 11.759C5.55875 11.8694 5.71398 11.7816 5.71398 11.5631M5.71398 8.3959C5.71398 8.1774 5.86921 8.08962 6.06039 8.2L8.83167 9.8C9.02285 9.91038 9.17808 10.1774 9.17808 10.3959M5.71398 11.5631C5.71398 11.7816 5.86921 12.0486 6.06039 12.159L8.83167 13.759C9.02285 13.8694 9.17808 13.7816 9.17808 13.5631M9.17808 10.3959V13.5631M9.17808 10.3959C9.17808 10.1774 9.33331 10.0896 9.52449 10.2L12.2958 11.8C12.487 11.9104 12.6422 12.1774 12.6422 12.3959V15.5631C12.6422 15.7816 12.487 15.8694 12.2958 15.759L9.52449 14.159C9.33331 14.0486 9.17808 13.7816 9.17808 13.5631" stroke="#706F6F" stroke-width="0.4"/>
    <path d="M5.71398 12.3549V15.5221C5.71398 15.7406 5.55875 15.8283 5.36757 15.718L2.59629 14.118C2.4051 14.0076 2.24988 13.7406 2.24988 13.5221V10.3549C2.24988 10.1364 2.4051 10.0486 2.59629 10.159L5.36757 11.759C5.55875 11.8694 5.71398 12.1364 5.71398 12.3549ZM9.17808 14.3549V17.5221C9.17808 17.7406 9.02285 17.8283 8.83167 17.718L6.06039 16.118C5.86921 16.0076 5.71398 15.7406 5.71398 15.5221V12.3549C5.71398 12.1364 5.86921 12.0486 6.06039 12.159L8.83167 13.759C9.02285 13.8694 9.17808 14.1364 9.17808 14.3549ZM12.6422 16.3549V19.5221C12.6422 19.7406 12.487 19.8283 12.2958 19.718L9.52449 18.118C9.33331 18.0076 9.17808 17.7406 9.17808 17.5221V14.3549C9.17808 14.1364 9.33331 14.0486 9.52449 14.159L12.2958 15.759C12.487 15.8694 12.6422 16.1364 12.6422 16.3549Z" fill="#0DFF00"/>
    <path d="M5.71398 12.3549V15.5221M5.71398 12.3549C5.71398 12.1364 5.55875 11.8694 5.36757 11.759L2.59629 10.159C2.4051 10.0486 2.24988 10.1364 2.24988 10.3549V13.5221C2.24988 13.7406 2.4051 14.0076 2.59629 14.118L5.36757 15.718C5.55875 15.8283 5.71398 15.7406 5.71398 15.5221M5.71398 12.3549C5.71398 12.1364 5.86921 12.0486 6.06039 12.159L8.83167 13.759C9.02285 13.8694 9.17808 14.1364 9.17808 14.3549M5.71398 15.5221C5.71398 15.7406 5.86921 16.0076 6.06039 16.118L8.83167 17.718C9.02285 17.8283 9.17808 17.7406 9.17808 17.5221M9.17808 14.3549V17.5221M9.17808 14.3549C9.17808 14.1364 9.33331 14.0486 9.52449 14.159L12.2958 15.759C12.487 15.8694 12.6422 16.1364 12.6422 16.3549V19.5221C12.6422 19.7406 12.487 19.8283 12.2958 19.718L9.52449 18.118C9.33331 18.0076 9.17808 17.7406 9.17808 17.5221" stroke="#706F6F" stroke-width="0.4"/>
    <path d="M5.71398 16.3139V19.481C5.71398 19.6995 5.55875 19.7873 5.36757 19.6769L2.59629 18.0769C2.4051 17.9666 2.24988 17.6995 2.24988 17.481V14.3139C2.24988 14.0954 2.4051 14.0076 2.59629 14.118L5.36757 15.718C5.55875 15.8283 5.71398 16.0954 5.71398 16.3139ZM9.17808 18.3139V21.481C9.17808 21.6995 9.02285 21.7873 8.83167 21.6769L6.06039 20.0769C5.86921 19.9666 5.71398 19.6995 5.71398 19.481V16.3139C5.71398 16.0954 5.86921 16.0076 6.06039 16.118L8.83167 17.718C9.02285 17.8283 9.17808 18.0954 9.17808 18.3139ZM12.6422 20.3139V23.481C12.6422 23.6995 12.487 23.7873 12.2958 23.6769L9.52449 22.0769C9.33331 21.9666 9.17808 21.6995 9.17808 21.481V18.3139C9.17808 18.0954 9.33331 18.0076 9.52449 18.118L12.2958 19.718C12.487 19.8283 12.6422 20.0954 12.6422 20.3139Z" fill="#0DFF00"/>
    <path d="M5.71398 16.3139V19.481M5.71398 16.3139C5.71398 16.0954 5.55875 15.8283 5.36757 15.718L2.59629 14.118C2.4051 14.0076 2.24988 14.0954 2.24988 14.3139V17.481C2.24988 17.6995 2.4051 17.9666 2.59629 18.0769L5.36757 19.6769C5.55875 19.7873 5.71398 19.6995 5.71398 19.481M5.71398 16.3139C5.71398 16.0954 5.86921 16.0076 6.06039 16.118L8.83167 17.718C9.02285 17.8283 9.17808 18.0954 9.17808 18.3139M5.71398 19.481C5.71398 19.6995 5.86921 19.9666 6.06039 20.0769L8.83167 21.6769C9.02285 21.7873 9.17808 21.6995 9.17808 21.481M9.17808 18.3139V21.481M9.17808 18.3139C9.17808 18.0954 9.33331 18.0076 9.52449 18.118L12.2958 19.718C12.487 19.8283 12.6422 20.0954 12.6422 20.3139V23.481C12.6422 23.6995 12.487 23.7873 12.2958 23.6769L9.52449 22.0769C9.33331 21.9666 9.17808 21.6995 9.17808 21.481" stroke="#706F6F" stroke-width="0.4"/>
    <path d="M15.5155 2.05558L12.7442 3.65384C12.6896 3.6853 12.6008 3.6853 12.5462 3.65384L9.77481 2.05558C9.72026 2.02412 9.72026 1.97288 9.77481 1.94142L12.5462 0.343159C12.6008 0.311698 12.6896 0.311698 12.7442 0.343159L15.5155 1.94142C15.5701 1.97288 15.5701 2.02412 15.5155 2.05558ZM12.0505 4.05389L9.27908 5.65215C9.23822 5.67571 9.17819 5.68193 9.12765 5.6702L9.08112 5.65215L6.30974 4.05389C6.25518 4.02243 6.25518 3.97119 6.30974 3.93973L9.08112 2.34147C9.12198 2.31791 9.18201 2.31168 9.23255 2.32342L9.27908 2.34147L12.0505 3.93973C12.105 3.97119 12.105 4.02243 12.0505 4.05389ZM8.58538 6.0522L5.814 7.65046C5.75945 7.68192 5.6706 7.68192 5.61604 7.65046L2.84466 6.0522C2.79011 6.02074 2.79011 5.9695 2.84466 5.93804L5.61604 4.33978C5.6569 4.31622 5.71693 4.30999 5.76747 4.32173L5.814 4.33978L8.58538 5.93804C8.63994 5.9695 8.63994 6.02074 8.58538 6.0522ZM18.9806 4.05389L16.2092 5.65215C16.1684 5.67571 16.1083 5.68193 16.0578 5.6702L16.0113 5.65215L13.2399 4.05389C13.1853 4.02243 13.1853 3.97119 13.2399 3.93973L16.0113 2.34147C16.0658 2.31001 16.1547 2.31001 16.2092 2.34147L18.9806 3.93973C19.0352 3.97119 19.0352 4.02243 18.9806 4.05389ZM15.5155 6.0522L12.7442 7.65046C12.7033 7.67402 12.6433 7.68024 12.5927 7.66851L12.5462 7.65046L9.77481 6.0522C9.72026 6.02074 9.72026 5.9695 9.77481 5.93804L12.5462 4.33978C12.5871 4.31622 12.6471 4.30999 12.6976 4.32173L12.7442 4.33978L15.5155 5.93804C15.5701 5.9695 15.5701 6.02074 15.5155 6.0522ZM12.0505 8.05051L9.27908 9.64877C9.22452 9.68023 9.13567 9.68023 9.08112 9.64877L6.30974 8.05051C6.25518 8.01905 6.25518 7.96781 6.30974 7.93635L9.08112 6.33809C9.12198 6.31452 9.18201 6.3083 9.23255 6.32004L9.27908 6.33809L12.0505 7.93635C12.105 7.96781 12.105 8.01905 12.0505 8.05051ZM22.4457 6.0522L19.6743 7.65046C19.6198 7.68192 19.5309 7.68192 19.4764 7.65046L16.705 6.0522C16.6504 6.02074 16.6504 5.9695 16.705 5.93804L19.4764 4.33978C19.5309 4.30832 19.6198 4.30832 19.6743 4.33978L22.4457 5.93804C22.5002 5.9695 22.5002 6.02074 22.4457 6.0522ZM18.9806 8.05051L16.2092 9.64877C16.1547 9.68023 16.0658 9.68023 16.0113 9.64877L13.2399 8.05051C13.1853 8.01905 13.1853 7.96781 13.2399 7.93635L16.0113 6.33809C16.0521 6.31452 16.1122 6.3083 16.1627 6.32004L16.2092 6.33809L18.9806 7.93635C19.0352 7.96781 19.0352 8.01905 18.9806 8.05051ZM15.5155 10.0488L12.7442 11.6471C12.6896 11.6785 12.6008 11.6785 12.5462 11.6471L9.77481 10.0488C9.72026 10.0174 9.72026 9.96612 9.77481 9.93466L12.5462 8.3364C12.5871 8.31283 12.6471 8.30661 12.6976 8.31835L12.7442 8.3364L15.5155 9.93466C15.5701 9.96612 15.5701 10.0174 15.5155 10.0488Z" fill="#00BBFF" stroke="#706F6F" stroke-width="0.571387"/>
    <path d="M19.2288 7.7936L16.4568 6.19495C16.2655 6.08466 16.2655 5.90557 16.4568 5.79529L19.2288 4.19664C19.4201 4.08635 19.7306 4.08635 19.9218 4.19664L22.6939 5.79529C22.8851 5.90557 22.8851 6.08466 22.6939 6.19495L19.9218 7.7936C19.7306 7.90388 19.4201 7.90388 19.2288 7.7936ZM15.7637 9.79191L12.9917 8.19326C12.8004 8.08297 12.8004 7.90388 12.9917 7.7936L15.7637 6.19495C15.955 6.08466 16.2655 6.08466 16.4568 6.19495L19.2288 7.7936C19.4201 7.90388 19.4201 8.08297 19.2288 8.19326L16.4568 9.79191C16.2655 9.90219 15.955 9.90219 15.7637 9.79191ZM12.2987 11.7902L9.52661 10.1916C9.33537 10.0813 9.33537 9.90219 9.52661 9.79191L12.2987 8.19326C12.4899 8.08297 12.8004 8.08297 12.9917 8.19326L15.7637 9.79191C15.955 9.90219 15.955 10.0813 15.7637 10.1916L12.9917 11.7902C12.8004 11.9005 12.4899 11.9005 12.2987 11.7902ZM15.7637 5.79529L12.9917 4.19664C12.8004 4.08635 12.8004 3.90726 12.9917 3.79698L15.7637 2.19833C15.955 2.08804 16.2655 2.08804 16.4568 2.19833L19.2288 3.79698C19.4201 3.90726 19.4201 4.08635 19.2288 4.19664L16.4568 5.79529C16.2655 5.90557 15.955 5.90557 15.7637 5.79529ZM12.2987 7.7936L9.52661 6.19495C9.33537 6.08466 9.33537 5.90557 9.52661 5.79529L12.2987 4.19664C12.4899 4.08635 12.8004 4.08635 12.9917 4.19664L15.7637 5.79529C15.955 5.90557 15.955 6.08466 15.7637 6.19495L12.9917 7.7936C12.8004 7.90388 12.4899 7.90388 12.2987 7.7936ZM8.83359 9.79191L6.06153 8.19326C5.87029 8.08297 5.87029 7.90388 6.06153 7.7936L8.83359 6.19495C9.02483 6.08466 9.33537 6.08466 9.52661 6.19495L12.2987 7.7936C12.4899 7.90388 12.4899 8.08297 12.2987 8.19326L9.52661 9.79191C9.33537 9.90219 9.02483 9.90219 8.83359 9.79191ZM12.2987 3.79698L9.52661 2.19833C9.33537 2.08804 9.33537 1.90895 9.52661 1.79867L12.2987 0.200018C12.4899 0.0897315 12.8004 0.0897315 12.9917 0.200018L15.7637 1.79867C15.955 1.90895 15.955 2.08804 15.7637 2.19833L12.9917 3.79698C12.8004 3.90726 12.4899 3.90726 12.2987 3.79698ZM8.83359 5.79529L6.06153 4.19664C5.87029 4.08635 5.87029 3.90726 6.06153 3.79698L8.83359 2.19833C9.02483 2.08804 9.33537 2.08804 9.52661 2.19833L12.2987 3.79698C12.4899 3.90726 12.4899 4.08635 12.2987 4.19664L9.52661 5.79529C9.33537 5.90557 9.02483 5.90557 8.83359 5.79529ZM5.36851 7.7936L2.59645 6.19495C2.40521 6.08466 2.40521 5.90557 2.59645 5.79529L5.36851 4.19664C5.55975 4.08635 5.87029 4.08635 6.06153 4.19664L8.83359 5.79529C9.02483 5.90557 9.02483 6.08466 8.83359 6.19495L6.06153 7.7936C5.87029 7.90388 5.55975 7.90388 5.36851 7.7936Z" fill="#00BBFF"/>
    <path d="M19.2288 7.7936L16.4568 6.19495M19.2288 7.7936C19.4201 7.90388 19.7306 7.90388 19.9218 7.7936L22.6939 6.19495C22.8851 6.08466 22.8851 5.90557 22.6939 5.79529L19.9218 4.19664C19.7306 4.08635 19.4201 4.08635 19.2288 4.19664M19.2288 7.7936C19.4201 7.90388 19.4201 8.08297 19.2288 8.19326L16.4568 9.79191C16.2655 9.90219 15.955 9.90219 15.7637 9.79191M16.4568 6.19495C16.2655 6.08466 16.2655 5.90557 16.4568 5.79529M16.4568 6.19495C16.2655 6.08466 15.955 6.08466 15.7637 6.19495M16.4568 5.79529L19.2288 4.19664M16.4568 5.79529C16.2655 5.90557 15.955 5.90557 15.7637 5.79529M19.2288 4.19664C19.4201 4.08635 19.4201 3.90726 19.2288 3.79698L16.4568 2.19833C16.2655 2.08804 15.955 2.08804 15.7637 2.19833M15.7637 9.79191L12.9917 8.19326M15.7637 9.79191C15.955 9.90219 15.955 10.0813 15.7637 10.1916L12.9917 11.7902C12.8004 11.9005 12.4899 11.9005 12.2987 11.7902L9.52661 10.1916C9.33537 10.0813 9.33537 9.90219 9.52661 9.79191M12.9917 8.19326C12.8004 8.08297 12.8004 7.90388 12.9917 7.7936M12.9917 8.19326C12.8004 8.08297 12.4899 8.08297 12.2987 8.19326M12.9917 7.7936L15.7637 6.19495M12.9917 7.7936C12.8004 7.90388 12.4899 7.90388 12.2987 7.7936M15.7637 6.19495C15.955 6.08466 15.955 5.90557 15.7637 5.79529M9.52661 9.79191L12.2987 8.19326M9.52661 9.79191C9.33537 9.90219 9.02483 9.90219 8.83359 9.79191L6.06153 8.19326C5.87029 8.08297 5.87029 7.90388 6.06153 7.7936M12.2987 8.19326C12.4899 8.08297 12.4899 7.90388 12.2987 7.7936M15.7637 5.79529L12.9917 4.19664M12.9917 4.19664C12.8004 4.08635 12.8004 3.90726 12.9917 3.79698M12.9917 4.19664C12.8004 4.08635 12.4899 4.08635 12.2987 4.19664M12.9917 3.79698L15.7637 2.19833M12.9917 3.79698C12.8004 3.90726 12.4899 3.90726 12.2987 3.79698M15.7637 2.19833C15.955 2.08804 15.955 1.90895 15.7637 1.79867L12.9917 0.200018C12.8004 0.0897315 12.4899 0.0897315 12.2987 0.200018L9.52661 1.79867C9.33537 1.90895 9.33537 2.08804 9.52661 2.19833M12.2987 7.7936L9.52661 6.19495M9.52661 6.19495C9.33537 6.08466 9.33537 5.90557 9.52661 5.79529M9.52661 6.19495C9.33537 6.08466 9.02483 6.08466 8.83359 6.19495M9.52661 5.79529L12.2987 4.19664M9.52661 5.79529C9.33537 5.90557 9.02483 5.90557 8.83359 5.79529M12.2987 4.19664C12.4899 4.08635 12.4899 3.90726 12.2987 3.79698M6.06153 7.7936L8.83359 6.19495M6.06153 7.7936C5.87029 7.90388 5.55975 7.90388 5.36851 7.7936L2.59645 6.19495C2.40521 6.08466 2.40521 5.90557 2.59645 5.79529L5.36851 4.19664C5.55975 4.08635 5.87029 4.08635 6.06153 4.19664M8.83359 6.19495C9.02483 6.08466 9.02483 5.90557 8.83359 5.79529M12.2987 3.79698L9.52661 2.19833M9.52661 2.19833C9.33537 2.08804 9.02483 2.08804 8.83359 2.19833L6.06153 3.79698C5.87029 3.90726 5.87029 4.08635 6.06153 4.19664M8.83359 5.79529L6.06153 4.19664" stroke="#706F6F" stroke-width="0.4" stroke-linecap="round" stroke-linejoin="round"/>
  </g>
  <defs>
    <clipPath id="clip0_913_12549">
      <rect width="24" height="24" fill="white" transform="translate(0.249878)"/>
    </clipPath>
  </defs>
</svg>
